<?xml version="1.0" encoding="utf-8"?>
<!-- Generator: Adobe Illustrator 15.1.0, SVG Export Plug-In . SVG Version: 6.00 Build 0)  -->
<!DOCTYPE svg PUBLIC "-//W3C//DTD SVG 1.1//EN" "http://www.w3.org/Graphics/SVG/1.1/DTD/svg11.dtd">
<svg version="1.1" id="Layer_1" xmlns="http://www.w3.org/2000/svg" xmlns:xlink="http://www.w3.org/1999/xlink" x="0px" y="0px"
	 width="100px" height="100px" viewBox="200 200 100 100" enable-background="new 200 200 100 100" xml:space="preserve">
<g display="none">
	<g display="inline">
		<rect y="810" fill="none" stroke="#000000" stroke-width="0.1" stroke-miterlimit="10" width="2160" height="2160"/>
		<line fill="none" stroke="#000000" stroke-width="0.1" stroke-miterlimit="10" x1="0" y1="2902.5" x2="2160" y2="2902.5"/>
		<line fill="none" stroke="#000000" stroke-width="0.1" stroke-miterlimit="10" x1="0" y1="2835" x2="2160" y2="2835"/>
		<line fill="none" stroke="#000000" stroke-width="0.1" stroke-miterlimit="10" x1="0" y1="2767.5" x2="2160" y2="2767.5"/>
		<line fill="none" stroke="#000000" stroke-width="0.1" stroke-miterlimit="10" x1="0" y1="2700" x2="2160" y2="2700"/>
		<line fill="none" stroke="#000000" stroke-width="0.1" stroke-miterlimit="10" x1="0" y1="2632.5" x2="2160" y2="2632.5"/>
		<line fill="none" stroke="#000000" stroke-width="0.1" stroke-miterlimit="10" x1="0" y1="2565" x2="2160" y2="2565"/>
		<line fill="none" stroke="#000000" stroke-width="0.1" stroke-miterlimit="10" x1="0" y1="2497.5" x2="2160" y2="2497.5"/>
		<line fill="none" stroke="#000000" stroke-width="0.1" stroke-miterlimit="10" x1="0" y1="2430" x2="2160" y2="2430"/>
		<line fill="none" stroke="#000000" stroke-width="0.1" stroke-miterlimit="10" x1="0" y1="2362.5" x2="2160" y2="2362.5"/>
		<line fill="none" stroke="#000000" stroke-width="0.1" stroke-miterlimit="10" x1="0" y1="2295" x2="2160" y2="2295"/>
		<line fill="none" stroke="#000000" stroke-width="0.1" stroke-miterlimit="10" x1="0" y1="2227.5" x2="2160" y2="2227.5"/>
		<line fill="none" stroke="#000000" stroke-width="0.1" stroke-miterlimit="10" x1="0" y1="2160" x2="2160" y2="2160"/>
		<line fill="none" stroke="#000000" stroke-width="0.1" stroke-miterlimit="10" x1="0" y1="2092.5" x2="2160" y2="2092.5"/>
		<line fill="none" stroke="#000000" stroke-width="0.1" stroke-miterlimit="10" x1="0" y1="2025" x2="2160" y2="2025"/>
		<line fill="none" stroke="#000000" stroke-width="0.1" stroke-miterlimit="10" x1="0" y1="1957.5" x2="2160" y2="1957.5"/>
		<line fill="none" stroke="#000000" stroke-width="0.1" stroke-miterlimit="10" x1="0" y1="1890" x2="2160" y2="1890"/>
		<line fill="none" stroke="#000000" stroke-width="0.1" stroke-miterlimit="10" x1="0" y1="1822.5" x2="2160" y2="1822.5"/>
		<line fill="none" stroke="#000000" stroke-width="0.1" stroke-miterlimit="10" x1="0" y1="1755" x2="2160" y2="1755"/>
		<line fill="none" stroke="#000000" stroke-width="0.1" stroke-miterlimit="10" x1="0" y1="1687.5" x2="2160" y2="1687.5"/>
		<line fill="none" stroke="#000000" stroke-width="0.1" stroke-miterlimit="10" x1="0" y1="1620" x2="2160" y2="1620"/>
		<line fill="none" stroke="#000000" stroke-width="0.1" stroke-miterlimit="10" x1="0" y1="1552.5" x2="2160" y2="1552.5"/>
		<line fill="none" stroke="#000000" stroke-width="0.1" stroke-miterlimit="10" x1="0" y1="1485" x2="2160" y2="1485"/>
		<line fill="none" stroke="#000000" stroke-width="0.1" stroke-miterlimit="10" x1="0" y1="1417.5" x2="2160" y2="1417.5"/>
		<line fill="none" stroke="#000000" stroke-width="0.1" stroke-miterlimit="10" x1="0" y1="1350" x2="2160" y2="1350"/>
		<line fill="none" stroke="#000000" stroke-width="0.1" stroke-miterlimit="10" x1="0" y1="1282.5" x2="2160" y2="1282.5"/>
		<line fill="none" stroke="#000000" stroke-width="0.1" stroke-miterlimit="10" x1="0" y1="1215" x2="2160" y2="1215"/>
		<line fill="none" stroke="#000000" stroke-width="0.1" stroke-miterlimit="10" x1="0" y1="1147.5" x2="2160" y2="1147.5"/>
		<line fill="none" stroke="#000000" stroke-width="0.1" stroke-miterlimit="10" x1="0" y1="1080" x2="2160" y2="1080"/>
		<line fill="none" stroke="#000000" stroke-width="0.1" stroke-miterlimit="10" x1="0" y1="1012.5" x2="2160" y2="1012.5"/>
		<line fill="none" stroke="#000000" stroke-width="0.1" stroke-miterlimit="10" x1="0" y1="945" x2="2160" y2="945"/>
		<line fill="none" stroke="#000000" stroke-width="0.1" stroke-miterlimit="10" x1="0" y1="877.5" x2="2160" y2="877.5"/>
		<line fill="none" stroke="#000000" stroke-width="0.1" stroke-miterlimit="10" x1="2092.5" y1="810" x2="2092.5" y2="2970"/>
		<line fill="none" stroke="#000000" stroke-width="0.1" stroke-miterlimit="10" x1="2025" y1="810" x2="2025" y2="2970"/>
		<line fill="none" stroke="#000000" stroke-width="0.1" stroke-miterlimit="10" x1="1957.5" y1="810" x2="1957.5" y2="2970"/>
		<line fill="none" stroke="#000000" stroke-width="0.1" stroke-miterlimit="10" x1="1890" y1="810" x2="1890" y2="2970"/>
		<line fill="none" stroke="#000000" stroke-width="0.1" stroke-miterlimit="10" x1="1822.5" y1="810" x2="1822.5" y2="2970"/>
		<line fill="none" stroke="#000000" stroke-width="0.1" stroke-miterlimit="10" x1="1755" y1="810" x2="1755" y2="2970"/>
		<line fill="none" stroke="#000000" stroke-width="0.1" stroke-miterlimit="10" x1="1687.5" y1="810" x2="1687.5" y2="2970"/>
		<line fill="none" stroke="#000000" stroke-width="0.1" stroke-miterlimit="10" x1="1620" y1="810" x2="1620" y2="2970"/>
		<line fill="none" stroke="#000000" stroke-width="0.1" stroke-miterlimit="10" x1="1552.5" y1="810" x2="1552.5" y2="2970"/>
		<line fill="none" stroke="#000000" stroke-width="0.1" stroke-miterlimit="10" x1="1485" y1="810" x2="1485" y2="2970"/>
		<line fill="none" stroke="#000000" stroke-width="0.1" stroke-miterlimit="10" x1="1417.5" y1="810" x2="1417.5" y2="2970"/>
		<line fill="none" stroke="#000000" stroke-width="0.1" stroke-miterlimit="10" x1="1350" y1="810" x2="1350" y2="2970"/>
		<line fill="none" stroke="#000000" stroke-width="0.1" stroke-miterlimit="10" x1="1282.5" y1="810" x2="1282.5" y2="2970"/>
		<line fill="none" stroke="#000000" stroke-width="0.1" stroke-miterlimit="10" x1="1215" y1="810" x2="1215" y2="2970"/>
		<line fill="none" stroke="#000000" stroke-width="0.1" stroke-miterlimit="10" x1="1147.5" y1="810" x2="1147.5" y2="2970"/>
		<line fill="none" stroke="#000000" stroke-width="0.1" stroke-miterlimit="10" x1="1080" y1="810" x2="1080" y2="2970"/>
		<line fill="none" stroke="#000000" stroke-width="0.1" stroke-miterlimit="10" x1="1012.5" y1="810" x2="1012.5" y2="2970"/>
		<line fill="none" stroke="#000000" stroke-width="0.1" stroke-miterlimit="10" x1="945" y1="810" x2="945" y2="2970"/>
		<line fill="none" stroke="#000000" stroke-width="0.1" stroke-miterlimit="10" x1="877.5" y1="810" x2="877.5" y2="2970"/>
		<line fill="none" stroke="#000000" stroke-width="0.1" stroke-miterlimit="10" x1="810" y1="810" x2="810" y2="2970"/>
		<line fill="none" stroke="#000000" stroke-width="0.1" stroke-miterlimit="10" x1="742.5" y1="810" x2="742.5" y2="2970"/>
		<line fill="none" stroke="#000000" stroke-width="0.1" stroke-miterlimit="10" x1="675" y1="810" x2="675" y2="2970"/>
		<line fill="none" stroke="#000000" stroke-width="0.1" stroke-miterlimit="10" x1="607.5" y1="810" x2="607.5" y2="2970"/>
		<line fill="none" stroke="#000000" stroke-width="0.1" stroke-miterlimit="10" x1="540" y1="810" x2="540" y2="2970"/>
		<line fill="none" stroke="#000000" stroke-width="0.1" stroke-miterlimit="10" x1="472.5" y1="810" x2="472.5" y2="2970"/>
		<line fill="none" stroke="#000000" stroke-width="0.1" stroke-miterlimit="10" x1="405" y1="810" x2="405" y2="2970"/>
		<line fill="none" stroke="#000000" stroke-width="0.1" stroke-miterlimit="10" x1="337.5" y1="810" x2="337.5" y2="2970"/>
		<line fill="none" stroke="#000000" stroke-width="0.1" stroke-miterlimit="10" x1="270" y1="810" x2="270" y2="2970"/>
		<line fill="none" stroke="#000000" stroke-width="0.1" stroke-miterlimit="10" x1="202.5" y1="810" x2="202.5" y2="2970"/>
		<line fill="none" stroke="#000000" stroke-width="0.1" stroke-miterlimit="10" x1="135" y1="810" x2="135" y2="2970"/>
		<line fill="none" stroke="#000000" stroke-width="0.1" stroke-miterlimit="10" x1="67.5" y1="810" x2="67.5" y2="2970"/>
	</g>
</g>
<path fill="#00A3E6" d="M250,200c-27.62,0-50,22.38-50,50c0,27.619,22.38,50,50,50c27.619,0,50-22.381,50-50
	C300,222.38,277.619,200,250,200z M235.52,273.5L225,274.961l1.52-10.521l32.281-32.3l9.08,9.021L235.52,273.5z M269.721,239.34
	l-9.021-9.02l5.281-5.28l9.02,9.02L269.721,239.34z"/>
</svg>
