<?xml version="1.0" encoding="utf-8"?>
<!-- Generator: Adobe Illustrator 15.1.0, SVG Export Plug-In . SVG Version: 6.00 Build 0)  -->
<!DOCTYPE svg PUBLIC "-//W3C//DTD SVG 1.1//EN" "http://www.w3.org/Graphics/SVG/1.1/DTD/svg11.dtd">
<svg version="1.1" id="Layer_1" xmlns="http://www.w3.org/2000/svg" xmlns:xlink="http://www.w3.org/1999/xlink" x="0px" y="0px"
	 width="100px" height="100px" viewBox="200 200 100 100" enable-background="new 200 200 100 100" xml:space="preserve">
<g>
	<path fill="#00A3E6" d="M275.132,236.161c1.78,0,3.19-1.408,3.19-3.188c0-1.78-1.41-3.189-3.19-3.189
		c-1.778,0-3.188,1.409-3.188,3.189C271.944,234.753,273.353,236.161,275.132,236.161z"/>
	<path fill="#00A3E6" d="M296.4,200h-92.8c-1.988,0-3.6,1.612-3.6,3.6v92.8c0,1.988,1.612,3.6,3.6,3.6h92.8
		c1.988,0,3.6-1.611,3.6-3.6v-92.8C300,201.612,298.389,200,296.4,200z M236.28,232.38l4.671-4.598
		c0.148-0.223,0.445-0.296,0.667-0.296h19.574c2.002-3.56,5.709-5.932,10.011-5.932c6.376,0,11.492,5.116,11.492,11.492
		c0,6.378-5.116,11.494-11.492,11.494c-4.302,0-8.009-2.447-10.011-5.933h-5.116c-0.223,0-0.52-0.147-0.668-0.296l-3.336-3.337
		l-2.965,2.892c-0.371,0.372-0.964,0.372-1.333,0l-2.893-2.892l-2.966,2.966c-0.371,0.371-0.964,0.371-1.335,0l-4.3-4.227
		C235.909,233.344,235.909,232.75,236.28,232.38z M282.769,264.191c-5.115,3.557-22.984,14.533-32.253,14.088
		c-4.227-0.223-10.751-1.484-16.832-3.411c-0.889-0.297-1.928-0.074-2.743,0.52l-3.337,2.595c-1.038,0.742-2.521,0.594-3.262-0.445
		l-9.046-11.716c-0.815-1.036-0.593-2.521,0.445-3.263c2.076-1.559,5.487-4.003,8.527-6.081c6.229-4.226,13.273-6.821,16.758-7.191
		c3.114-0.371,7.489-0.223,11.789,0.074c3.782,0.296,7.637,0.519,10.899,0.296c2.299-0.148,3.782,1.705,4.005,3.632
		c0.296,2.375-1.039,5.192-5.709,6.08c-2.522,0.52-6.525,0.148-10.752-0.223c-0.224,0-0.519-0.074-0.741-0.074
		c-0.963-0.071-1.78,0.742-1.705,1.781c0.073,0.816,0.741,1.41,1.556,1.484c0.223,0.072,0.443,0.072,0.666,0.072
		c3.264,0.223,6.229,0.52,8.751,0.445c1.038-0.074,2.002-0.148,2.817-0.297c3.634-0.668,5.933-2.373,7.192-4.448
		c3.56-0.816,6.748-1.633,8.749-2.372C284.179,253.66,287.886,260.779,282.769,264.191z"/>
</g>
</svg>
