<?xml version="1.0" encoding="utf-8"?>
<!-- Generator: Adobe Illustrator 15.1.0, SVG Export Plug-In . SVG Version: 6.00 Build 0)  -->
<!DOCTYPE svg PUBLIC "-//W3C//DTD SVG 1.1//EN" "http://www.w3.org/Graphics/SVG/1.1/DTD/svg11.dtd">
<svg version="1.1" id="Logos" xmlns="http://www.w3.org/2000/svg" xmlns:xlink="http://www.w3.org/1999/xlink" x="0px" y="0px"
	 width="150px" height="150px" viewBox="0 0 150 150" enable-background="new 0 0 150 150" xml:space="preserve">
<g>
	<path fill="#E03416" d="M150,147.001c0,1.65-1.349,2.999-2.999,2.999H3c-1.65,0-3-1.349-3-2.999v-40.872
		c0-1.651,1.35-3.004,3-3.004h144c1.65,0,2.999,1.353,2.999,3.004V147.001z"/>
	<path fill="#00A3E6" d="M46.875,43.875c0,1.65-1.35,3-3,3H3c-1.65,0-3-1.35-3-3V3c0-1.65,1.35-3,3-3h40.875c1.65,0,3,1.35,3,3
		V43.875z"/>
	<path fill="#00A3E6" d="M98.439,43.875c0,1.65-1.352,3-3.001,3H54.563c-1.65,0-3-1.35-3-3V3c0-1.65,1.35-3,3-3h40.875
		c1.648,0,2.999,1.35,2.999,3v40.875H98.439z"/>
	<path fill="#00A3E6" d="M150,43.875c0,1.65-1.349,3-2.999,3h-40.872c-1.651,0-3.004-1.35-3.004-3V3c0-1.65,1.353-3,3.004-3h40.872
		C148.651,0,150,1.35,150,3V43.875z"/>
	<path fill="#ED8116" d="M46.875,95.438c0,1.649-1.35,3.001-3,3.001H3c-1.65,0-3-1.352-3-3.001V54.563c0-1.65,1.35-3,3-3h40.875
		c1.65,0,3,1.35,3,3V95.438z"/>
	<path fill="#ED8116" d="M98.439,95.438c0,1.649-1.352,3.001-3.001,3.001H54.563c-1.65,0-3-1.352-3-3.001V54.563c0-1.65,1.35-3,3-3
		h40.875c1.648,0,2.999,1.35,2.999,3v40.875H98.439z"/>
	<path fill="#ED8116" d="M150,95.438c0,1.649-1.349,3.001-2.999,3.001h-40.872c-1.651,0-3.004-1.352-3.004-3.001V54.563
		c0-1.65,1.353-3,3.004-3h40.872c1.65,0,2.999,1.35,2.999,3V95.438z"/>
	<g>
		<path fill="#FFFFFF" d="M12.805,32.142l3.388-3.689c2.345,1.759,4.801,2.875,7.779,2.875c2.345,0,3.759-0.845,3.759-2.233v-0.068
			c0-1.32-0.894-1.997-5.25-3.011c-5.247-1.219-8.635-2.538-8.635-7.242v-0.068c0-4.298,3.796-7.14,9.12-7.14
			c3.798,0,7.036,1.082,9.678,3.011l-2.977,3.926c-2.309-1.456-4.579-2.336-6.774-2.336c-2.196,0-3.35,0.914-3.35,2.064V18.3
			c0,1.557,1.117,2.064,5.62,3.113c5.285,1.252,8.263,2.978,8.263,7.106v0.068c0,4.703-3.945,7.343-9.565,7.343
			C19.915,35.931,15.933,34.679,12.805,32.142z"/>
		<path fill="#FFFFFF" d="M64.684,11.906h19.654v4.636H70.38v4.804h12.283v4.635H70.38v4.976h14.146v4.636H64.684V11.906z"/>
		<path fill="#FFFFFF" d="M123.754,11.722h5.287l11.166,23.857h-5.994l-2.381-5.312h-11.021l-2.383,5.312h-5.843L123.754,11.722z
			 M129.783,25.664l-3.459-7.682l-3.463,7.682H129.783z"/>
	</g>
	<g>
		<path fill="#FFFFFF" d="M14.174,63.47h10.998c2.708,0,4.839,0.744,6.193,2.099c1.083,1.083,1.624,2.402,1.624,4.026v0.068
			c0,2.673-1.421,4.162-3.113,5.11c2.74,1.049,4.432,2.639,4.432,5.821v0.068c0,4.329-3.52,6.497-8.866,6.497H14.174V63.47z
			 M24.055,73.047c2.3,0,3.754-0.745,3.754-2.505v-0.068c0-1.557-1.218-2.436-3.417-2.436h-5.145v5.008H24.055z M25.442,82.588
			c2.302,0,3.688-0.811,3.688-2.57v-0.068c0-1.59-1.186-2.57-3.858-2.57h-6.023v5.21L25.442,82.588L25.442,82.588z"/>
		<path fill="#FFFFFF" d="M62.141,75.381v-0.067c0-6.734,5.312-12.25,12.622-12.25c7.308,0,12.553,5.448,12.553,12.182v0.069
			c0,6.733-5.312,12.249-12.621,12.249C67.385,87.565,62.141,82.113,62.141,75.381z M81.868,75.381v-0.067
			c0-4.061-2.976-7.445-7.174-7.445c-4.195,0-7.105,3.315-7.105,7.377v0.069c0,4.061,2.978,7.443,7.174,7.443
			C78.958,82.756,81.868,79.44,81.868,75.381z"/>
		<path fill="#FFFFFF" d="M123.102,75.11l-8.71-11.64h6.698l5.437,7.682l5.544-7.682h6.516l-8.712,11.574l9.085,12.114h-6.7
			l-5.846-8.122l-5.881,8.122h-6.514L123.102,75.11z"/>
	</g>
	<g>
		<path fill="#FFFFFF" d="M12.574,116.656h7.963c6.417,0,10.852,4.406,10.852,10.149v0.059c0,5.747-4.435,10.21-10.852,10.21h-7.963
			V116.656z M20.537,133.018c3.675,0,6.155-2.477,6.155-6.093v-0.061c0-3.615-2.48-6.152-6.155-6.152h-3.471v12.306H20.537z"/>
		<path fill="#FFFFFF" d="M40.442,116.656h16.944v3.995H45.351v4.141h10.59v4h-10.59v4.286h12.195v3.996H40.442V116.656z"/>
		<path fill="#FFFFFF" d="M68.193,116.656h9.181c5.356,0,8.597,2.886,8.597,7.058v0.059c0,4.727-4.041,7.176-9.079,7.176h-3.755
			v6.126h-4.943V116.656z M77.051,126.953c2.472,0,3.916-1.343,3.916-3.092v-0.058c0-2.013-1.542-3.092-4.012-3.092h-3.818v6.241
			H77.051z"/>
		<path fill="#FFFFFF" d="M93.127,126.923v-0.06c0-5.802,4.579-10.557,10.879-10.557c6.301,0,10.82,4.696,10.82,10.498v0.059
			c0,5.804-4.578,10.559-10.88,10.559C97.647,137.422,93.127,132.726,93.127,126.923z M110.133,126.923v-0.06
			c0-3.499-2.567-6.416-6.186-6.416c-3.615,0-6.124,2.86-6.124,6.358v0.059c0,3.501,2.569,6.416,6.183,6.416
			C107.624,133.28,110.133,130.425,110.133,126.923z"/>
		<path fill="#FFFFFF" d="M127.654,120.801h-6.836v-4.144h18.613v4.144h-6.835v16.273h-4.942V120.801L127.654,120.801z"/>
	</g>
</g>
</svg>
