<?xml version="1.0" encoding="utf-8"?>
<!-- Generator: Adobe Illustrator 15.1.0, SVG Export Plug-In . SVG Version: 6.00 Build 0)  -->
<!DOCTYPE svg PUBLIC "-//W3C//DTD SVG 1.1//EN" "http://www.w3.org/Graphics/SVG/1.1/DTD/svg11.dtd">
<svg version="1.1" id="Layer_1" xmlns="http://www.w3.org/2000/svg" xmlns:xlink="http://www.w3.org/1999/xlink" x="0px" y="0px"
	 width="100px" height="100px" viewBox="200 200 100 100" enable-background="new 200 200 100 100" xml:space="preserve">
<path fill="#00A3E6" d="M296.853,241.448l-4.093-4.722c-1.784-2.099-2.938-4.723-3.147-7.556l-0.525-6.19
	c-0.524-6.401-5.666-11.542-12.066-12.067l-6.191-0.524c-2.729-0.209-5.456-1.26-7.555-3.148l-4.723-4.093
	c-4.932-4.196-12.172-4.196-17.104,0l-4.722,4.093c-2.099,1.785-4.722,2.939-7.556,3.148l-6.19,0.524
	c-6.401,0.525-11.543,5.666-12.068,12.067l-0.524,6.19c-0.21,2.729-1.26,5.458-3.148,7.556l-4.092,4.722
	c-4.197,4.932-4.197,12.172,0,17.104l4.092,4.722c1.784,2.099,2.938,4.723,3.148,7.556l0.524,6.19
	c0.525,6.401,5.667,11.543,12.068,12.067l6.19,0.524c2.729,0.21,5.457,1.26,7.556,3.148l4.722,4.093
	c4.932,4.196,12.172,4.196,17.104,0l4.723-4.093c2.099-1.784,4.722-2.938,7.555-3.148l6.191-0.524
	c6.4-0.524,11.542-5.666,12.066-12.067l0.525-6.19c0.21-2.729,1.259-5.457,3.147-7.556l4.093-4.722
	C301.05,253.62,301.05,246.275,296.853,241.448z M253.62,270.199v5.142c0,0.524-0.42,0.944-0.944,0.944h-5.036
	c-0.525,0-0.945-0.42-0.945-0.944v-5.036c-5.142-0.315-9.234-4.303-9.758-9.339c-0.105-0.525,0.418-1.05,0.944-1.05h5.036
	c0.42,0,0.84,0.314,0.944,0.734c0.315,1.574,1.68,2.729,3.358,2.729h4.407c2.623,0,5.036-1.889,5.246-4.512
	c0.314-2.938-1.993-5.457-4.932-5.457h-3.253c-6.296,0-11.857-4.512-12.487-10.808c-0.629-6.611,4.093-12.172,10.284-13.012v-5.037
	c0-0.524,0.419-0.944,0.944-0.944h5.036c0.524,0,0.944,0.42,0.944,0.944v5.037c5.142,0.314,9.234,4.302,9.759,9.339
	c0.105,0.524-0.42,1.049-0.944,1.049h-5.037c-0.419,0-0.839-0.314-0.944-0.734c-0.314-1.573-1.679-2.728-3.357-2.728h-4.407
	c-2.624,0-5.037,1.889-5.246,4.512c-0.315,2.938,1.993,5.562,4.932,5.562h3.777c7.03,0,12.592,5.981,11.857,13.116
	C263.379,265.163,258.972,269.255,253.62,270.199z"/>
</svg>
